<svg width="18" height="18" viewBox="0 0 18 18" fill="none" xmlns="http://www.w3.org/2000/svg">
<path d="M2.925 14.3417H3.01667L5.45833 14.1167C5.8 14.0833 6.11667 13.9333 6.35833 13.6917L15.575 4.475C16.0083 4.04167 16.25 3.46667 16.25 2.85833C16.25 2.25 16.0083 1.675 15.575 1.24167L14.9833 0.65C14.1167 -0.216667 12.6083 -0.216667 11.7417 0.65L10.5667 1.825L2.53333 9.85833C2.29167 10.1 2.14167 10.4167 2.11667 10.7583L1.89167 13.2C1.86667 13.5083 1.975 13.8083 2.19167 14.0333C2.39167 14.2333 2.65 14.3417 2.925 14.3417ZM13.3667 1.225C13.6333 1.225 13.9 1.325 14.1 1.53333L14.6917 2.125C14.789 2.22071 14.8664 2.33484 14.9191 2.46075C14.9719 2.58665 14.9991 2.72181 14.9991 2.85833C14.9991 2.99486 14.9719 3.13001 14.9191 3.25592C14.8664 3.38182 14.789 3.49596 14.6917 3.59167L13.9583 4.325L11.9 2.26667L12.6333 1.53333C12.8333 1.33333 13.1 1.225 13.3667 1.225ZM3.35833 10.875C3.35833 10.825 3.38333 10.7833 3.41667 10.75L11.0083 3.15L13.0667 5.20833L5.475 12.8C5.475 12.8 5.39167 12.8583 5.35 12.8583L3.15833 13.0583L3.35833 10.8667V10.875ZM17.9167 17C17.9167 17.3417 17.6333 17.625 17.2917 17.625H0.625C0.283333 17.625 0 17.3417 0 17C0 16.6583 0.283333 16.375 0.625 16.375H17.2917C17.6333 16.375 17.9167 16.6583 17.9167 17Z" fill="#84C000"/>
</svg>
