<svg width="24" height="24" viewBox="0 0 24 24" fill="none" xmlns="http://www.w3.org/2000/svg">
<g clip-path="url(#clip0_2129_3504)">
<path d="M19.9688 23.2492H4.03125C2.84231 23.2492 1.875 22.282 1.875 21.093V9.74829C1.875 9.3341 2.21077 8.99829 2.625 8.99829C3.03923 8.99829 3.375 9.3341 3.375 9.74829V21.093C3.375 21.4549 3.66938 21.7492 4.03125 21.7492H19.9688C20.3306 21.7492 20.625 21.4549 20.625 21.093V9.74829C20.625 9.3341 20.9608 8.99829 21.375 8.99829C21.7892 8.99829 22.125 9.3341 22.125 9.74829V21.093C22.125 22.2819 21.1577 23.2492 19.9688 23.2492Z" fill="black"/>
<path d="M23.25 12.373C23.1515 12.3732 23.0539 12.3538 22.9629 12.3161C22.8719 12.2784 22.7892 12.2231 22.7197 12.1533L13.3921 2.82581C12.6245 2.05818 11.3755 2.05818 10.6079 2.82581L1.28033 12.1534C0.987457 12.4463 0.512566 12.4463 0.219691 12.1534C-0.0732305 11.8605 -0.0732305 11.3856 0.219691 11.0927L9.54725 1.76512C10.8997 0.412684 13.1003 0.412684 14.4527 1.76512L23.7803 11.0927C24.0732 11.3856 24.0732 11.8604 23.7803 12.1533C23.7107 12.2231 23.6281 12.2784 23.5371 12.3161C23.4461 12.3538 23.3485 12.3732 23.25 12.373ZM15 23.2492H8.99999C8.58575 23.2492 8.24999 22.9134 8.24999 22.4992V15.8429C8.24999 14.5506 9.30139 13.4992 10.5937 13.4992H13.4062C14.6986 13.4992 15.75 14.5506 15.75 15.8429V22.4992C15.75 22.9134 15.4142 23.2492 15 23.2492ZM9.74999 21.7492H14.25V15.8429C14.25 15.3777 13.8715 14.9992 13.4062 14.9992H10.5937C10.1285 14.9992 9.74999 15.3777 9.74999 15.8429V21.7492Z" fill="black"/>
</g>
<defs>
<clipPath id="clip0_2129_3504">
<rect width="24" height="24" fill="white"/>
</clipPath>
</defs>
</svg>
