<svg width="16" height="24" viewBox="0 0 16 24" fill="none" xmlns="http://www.w3.org/2000/svg">
<path d="M8.01498 1.87526C7.75576 1.87338 7.54435 2.08198 7.54248 2.34073C7.5406 2.59948 7.74873 2.81088 8.00795 2.81276C8.2667 2.81463 8.4781 2.60651 8.47998 2.34776C8.48185 2.08901 8.27373 1.8776 8.01498 1.87526ZM7.99365 4.68771C6.18376 4.67487 4.70153 6.13498 4.68784 7.9443C4.6742 9.75354 6.1351 11.2365 7.94443 11.2501L7.96956 11.2502C9.76735 11.2502 11.2367 9.79446 11.2502 7.99352C11.2639 6.18438 9.80303 4.70135 7.99365 4.68771ZM7.96946 10.3128L7.95146 10.3127C6.65907 10.3029 5.61554 9.24363 5.62529 7.95133C5.63499 6.66485 6.68443 5.62507 7.96862 5.62507L7.98662 5.62516C9.27901 5.63491 10.3225 6.69419 10.3128 7.98649C10.303 9.27298 9.25365 10.3128 7.96946 10.3128ZM10.0142 2.23076C9.7704 2.14423 9.50232 2.27196 9.41579 2.51599C9.32931 2.76002 9.45704 3.02791 9.70103 3.11444C11.7657 3.84621 13.1417 5.81266 13.1252 8.00768C13.1233 8.26652 13.3316 8.47798 13.5905 8.47994H13.5941C13.8512 8.47994 14.0608 8.27238 14.0627 8.01471C14.0822 5.42032 12.4553 3.09593 10.0142 2.23076Z" fill="#84C000"/>
<path d="M10.845 17.6457C13.9628 13.6325 15.9113 11.5398 15.9376 8.02866C15.9706 3.61102 12.3855 0 7.96817 0C3.60242 0 0.0334558 3.53569 0.000268311 7.90912C-0.0265442 11.5155 1.9581 13.6053 5.09741 17.6451C1.97436 18.1117 0.000268311 19.2844 0.000268311 20.7188C0.000268311 21.6795 0.888362 22.5417 2.501 23.1464C3.9688 23.6968 5.91069 24 7.96892 24C10.0272 24 11.969 23.6968 13.4368 23.1464C15.0495 22.5417 15.9376 21.6795 15.9376 20.7187C15.9376 19.2852 13.9653 18.1128 10.845 17.6457ZM0.937721 7.9162C0.966971 4.05703 4.1158 0.9375 7.96827 0.9375C11.8663 0.9375 15.0292 4.12444 15.0001 8.02167C14.9752 11.3561 12.9088 13.4109 9.60992 17.7114C9.0215 18.4781 8.48113 19.203 7.96963 19.912C7.45963 19.2025 6.93003 18.4906 6.3328 17.7111C2.89752 13.2306 0.912315 11.331 0.937721 7.9162ZM7.96892 23.0625C3.94466 23.0625 0.937721 21.8251 0.937721 20.7188C0.937721 19.8983 2.73528 18.8617 5.75769 18.5028C6.4258 19.3794 7.01155 20.1758 7.58605 20.9892C7.62929 21.0504 7.6866 21.1004 7.75314 21.1349C7.81969 21.1694 7.89354 21.1874 7.9685 21.1875H7.96892C8.04382 21.1875 8.11763 21.1695 8.18416 21.1352C8.25069 21.1008 8.30802 21.0509 8.35133 20.9898C8.92039 20.187 9.52217 19.371 10.1846 18.5033C13.2042 18.8626 15.0001 19.8988 15.0001 20.7188C15.0001 21.8251 11.9932 23.0625 7.96892 23.0625Z" fill="#84C000"/>
</svg>
