<svg width="16" height="15" viewBox="0 0 16 15" fill="none" xmlns="http://www.w3.org/2000/svg">
<path d="M8.16667 7.33337C8.03406 7.33337 7.90688 7.2807 7.81311 7.18693C7.71935 7.09316 7.66667 6.96598 7.66667 6.83337V6.33337H3V6.83337C3 6.96598 2.94732 7.09316 2.85355 7.18693C2.75979 7.2807 2.63261 7.33337 2.5 7.33337C2.36739 7.33337 2.24021 7.2807 2.14645 7.18693C2.05268 7.09316 2 6.96598 2 6.83337V5.83337C2 5.70077 2.05268 5.57359 2.14645 5.47982C2.24021 5.38605 2.36739 5.33337 2.5 5.33337H8.16667C8.29927 5.33337 8.42645 5.38605 8.52022 5.47982C8.61399 5.57359 8.66667 5.70077 8.66667 5.83337V6.83337C8.66667 6.96598 8.61399 7.09316 8.52022 7.18693C8.42645 7.2807 8.29927 7.33337 8.16667 7.33337Z" fill="#84C000"/>
<path d="M5.33337 11.8333C5.20077 11.8333 5.07359 11.7807 4.97982 11.6869C4.88605 11.5931 4.83337 11.4659 4.83337 11.3333V6C4.83337 5.86739 4.88605 5.74022 4.97982 5.64645C5.07359 5.55268 5.20077 5.5 5.33337 5.5C5.46598 5.5 5.59316 5.55268 5.68693 5.64645C5.7807 5.74022 5.83337 5.86739 5.83337 6V11.3333C5.83337 11.4659 5.7807 11.5931 5.68693 11.6869C5.59316 11.7807 5.46598 11.8333 5.33337 11.8333Z" fill="#84C000"/>
<path d="M6.16667 12H4.5C4.36739 12 4.24021 11.9474 4.14645 11.8536C4.05268 11.7598 4 11.6326 4 11.5C4 11.3674 4.05268 11.2403 4.14645 11.1465C4.24021 11.0527 4.36739 11 4.5 11H6.16667C6.29927 11 6.42645 11.0527 6.52022 11.1465C6.61399 11.2403 6.66667 11.3674 6.66667 11.5C6.66667 11.6326 6.61399 11.7598 6.52022 11.8536C6.42645 11.9474 6.29927 12 6.16667 12ZM13.5 6.33337H10.5C10.3674 6.33337 10.2402 6.2807 10.1464 6.18693C10.0527 6.09316 10 5.96598 10 5.83337C10 5.70077 10.0527 5.57359 10.1464 5.47982C10.2402 5.38605 10.3674 5.33337 10.5 5.33337H13.5C13.6326 5.33337 13.7598 5.38605 13.8536 5.47982C13.9473 5.57359 14 5.70077 14 5.83337C14 5.96598 13.9473 6.09316 13.8536 6.18693C13.7598 6.2807 13.6326 6.33337 13.5 6.33337ZM13.5 9.00004H10.5C10.3674 9.00004 10.2402 8.94736 10.1464 8.85359C10.0527 8.75983 10 8.63265 10 8.50004C10 8.36743 10.0527 8.24026 10.1464 8.14649C10.2402 8.05272 10.3674 8.00004 10.5 8.00004H13.5C13.6326 8.00004 13.7598 8.05272 13.8536 8.14649C13.9473 8.24026 14 8.36743 14 8.50004C14 8.63265 13.9473 8.75983 13.8536 8.85359C13.7598 8.94736 13.6326 9.00004 13.5 9.00004ZM13.5 11.6667H10.5C10.3674 11.6667 10.2402 11.614 10.1464 11.5203C10.0527 11.4265 10 11.2993 10 11.1667C10 11.0341 10.0527 10.9069 10.1464 10.8132C10.2402 10.7194 10.3674 10.6667 10.5 10.6667H13.5C13.6326 10.6667 13.7598 10.7194 13.8536 10.8132C13.9473 10.9069 14 11.0341 14 11.1667C14 11.2993 13.9473 11.4265 13.8536 11.5203C13.7598 11.614 13.6326 11.6667 13.5 11.6667Z" fill="#84C000"/>
<path d="M14.1667 14.6667H1.83333C1.34721 14.6663 0.881101 14.473 0.537361 14.1293C0.193621 13.7856 0.000353158 13.3195 0 12.8333L0 1.83333C0.000353158 1.34721 0.193621 0.881101 0.537361 0.537361C0.881101 0.193621 1.34721 0.000353158 1.83333 0H14.1667C14.6528 0.000353158 15.1189 0.193621 15.4626 0.537361C15.8064 0.881101 15.9996 1.34721 16 1.83333V12.8333C15.9996 13.3195 15.8064 13.7856 15.4626 14.1293C15.1189 14.473 14.6528 14.6663 14.1667 14.6667ZM1.83333 1C1.374 1 1 1.374 1 1.83333V12.8333C1 13.2927 1.374 13.6667 1.83333 13.6667H14.1667C14.626 13.6667 15 13.2927 15 12.8333V1.83333C15 1.374 14.626 1 14.1667 1H1.83333Z" fill="#84C000"/>
<path d="M15.5 3.33337H0.5C0.367392 3.33337 0.240215 3.2807 0.146447 3.18693C0.0526784 3.09316 0 2.96598 0 2.83337C0 2.70077 0.0526784 2.57359 0.146447 2.47982C0.240215 2.38605 0.367392 2.33337 0.5 2.33337H15.5C15.6326 2.33337 15.7598 2.38605 15.8536 2.47982C15.9473 2.57359 16 2.70077 16 2.83337C16 2.96598 15.9473 3.09316 15.8536 3.18693C15.7598 3.2807 15.6326 3.33337 15.5 3.33337Z" fill="#84C000"/>
</svg>
